<?xml version="1.0" encoding="utf-8"?>
<!-- Generator: Adobe Illustrator 18.1.0, SVG Export Plug-In . SVG Version: 6.00 Build 0)  -->
<!DOCTYPE svg PUBLIC "-//W3C//DTD SVG 1.1//EN" "http://www.w3.org/Graphics/SVG/1.1/DTD/svg11.dtd">
<svg version="1.1" id="Layer_1" xmlns="http://www.w3.org/2000/svg" xmlns:xlink="http://www.w3.org/1999/xlink" x="0px" y="0px"
	 viewBox="-68.7 125.7 52.7 52.7" enable-background="new -68.7 125.7 52.7 52.7" xml:space="preserve">
<g id="XMLID_66_">
	<g>
		<g id="XMLID_9_">
			<g>
				<path fill="#459B82" d="M-27.5,157.1l-2,2c-0.1,0.1-0.3,0.3-0.4,0.4c-0.9,0.8-1.9,1.5-2.9,2.1c-2.7,1.4-5.7,1.9-8.7,1.5
					c-0.8-0.1-1.5-0.3-2.2-0.5c-0.7-0.2-1.3-0.4-1.9-0.8c-1.4-0.7-2.7-1.6-3.9-2.7c-1.2-1.2-2.1-2.5-2.7-3.9l3.6-3.6
					c0.3-0.3,0.5-0.5,0.8-0.7c0.3,1.5,1.1,3,2.3,4.2c1.2,1.2,2.7,2,4.2,2.3c0.7,0.1,1.3,0.2,2,0.2c0.7,0,1.4-0.1,2.1-0.3
					c1.3-0.4,2.6-1.1,3.6-2.1l2.2-2.2l1.6-1.6l1.5-1.5l3.9-3.9c3.3-3.3,3.3-8.7,0-12c-3.3-3.3-8.7-3.3-12,0l-3.9,3.9
					c-2.4-0.7-4.9-0.9-7.4-0.6l7.3-7.3c5.5-5.5,14.5-5.5,20,0c5.5,5.5,5.5,14.5,0,20L-27.5,157.1L-27.5,157.1z"/>
				<path fill="#459B82" d="M-45.5,146.4c-0.7,0-1.4,0.1-2.1,0.3c-1.3,0.4-2.6,1.1-3.6,2.1l-2.2,2.2l-1.6,1.6l-1.5,1.5l-4,4
					c-3.3,3.3-3.3,8.7,0,12c3.3,3.3,8.7,3.3,12,0l4-4c2.4,0.7,4.9,0.9,7.4,0.6l-7.3,7.3c-5.5,5.5-14.5,5.5-20,0
					c-5.5-5.5-5.5-14.5,0-20l7.3-7.3l2-2c0.1-0.1,0.3-0.3,0.4-0.4c0.9-0.8,1.8-1.5,2.9-2.1c2.7-1.4,5.7-2,8.7-1.5
					c0.8,0.1,1.5,0.2,2.2,0.5c0.7,0.2,1.3,0.4,1.9,0.8c1.4,0.7,2.7,1.6,3.9,2.7c1.2,1.2,2.1,2.5,2.7,3.9l-3.6,3.6
					c-0.3,0.3-0.5,0.5-0.8,0.7c-0.3-1.5-1.1-3-2.3-4.2c-1.2-1.2-2.7-2-4.2-2.3C-44.1,146.5-44.8,146.4-45.5,146.4z"/>
			</g>
		</g>
	</g>
</g>
</svg>
